<svg width="62" height="62" viewBox="0 0 62 62" fill="none" xmlns="http://www.w3.org/2000/svg">
<g clip-path="url(#clip0_944_270)">
<rect width="62" height="62" rx="31" fill="white"/>
<g clip-path="url(#clip1_944_270)">
<path d="M62 31C62 13.8802 48.1198 0 31 0C13.8802 0 0 13.8802 0 31C0 46.4717 11.3359 59.2975 26.1575 61.624V39.9613H18.2873V31H26.1575V24.1702C26.1575 16.4018 30.7852 12.1105 37.8666 12.1105C41.2589 12.1105 44.8067 12.7155 44.8067 12.7155V20.3453H40.897C37.0468 20.3453 35.8453 22.7341 35.8453 25.1879V31.0028H44.442L43.0681 39.9642H35.8453V61.6268C50.6641 59.3003 62.0028 46.4774 62.0028 31.0028L62 31Z" fill="#FF6600"/>
<path d="M43.0682 39.9615L44.442 31.0002H35.8454V25.1852C35.8454 22.7343 37.0468 20.3427 40.8971 20.3427H44.8067V12.7129C44.8067 12.7129 41.2589 12.1079 37.8666 12.1079C30.7852 12.1079 26.1575 16.3992 26.1575 24.1675V30.9974H18.2874V39.9587H26.1575V61.6214C27.7349 61.8702 29.3519 61.9974 31 61.9974C32.6481 61.9974 34.2651 61.8673 35.8426 61.6214V39.9587H43.0653L43.0682 39.9615Z" fill="white"/>
</g>
</g>
<defs>
<clipPath id="clip0_944_270">
<rect width="62" height="62" rx="31" fill="white"/>
</clipPath>
<clipPath id="clip1_944_270">
<rect width="62" height="62" fill="white"/>
</clipPath>
</defs>
</svg>
