<svg width="62" height="62" viewBox="0 0 62 62" fill="none" xmlns="http://www.w3.org/2000/svg">
<g clip-path="url(#clip0_944_253)">
<rect width="62" height="62" rx="31" fill="white"/>
<g clip-path="url(#clip1_944_253)">
<path d="M31 62C48.1208 62 62 48.1208 62 31C62 13.8792 48.1208 0 31 0C13.8792 0 0 13.8792 0 31C0 48.1208 13.8792 62 31 62Z" fill="#FF6600"/>
<path d="M40.6229 19.2739C39.4469 19.2739 38.4914 20.2266 38.4914 21.4054C38.4914 22.5842 39.4441 23.5369 40.6229 23.5369C41.8017 23.5369 42.7544 22.5842 42.7544 21.4054C42.7544 20.2266 41.8017 19.2739 40.6229 19.2739Z" fill="white"/>
<path d="M31.1498 22.0046C26.214 22.0046 22.1998 26.0189 22.1998 30.9547C22.1998 35.8905 26.214 39.9047 31.1498 39.9047C36.0856 39.9047 40.0998 35.8905 40.0998 30.9547C40.0998 26.0189 36.0856 22.0046 31.1498 22.0046ZM31.1498 36.6905C27.9893 36.6905 25.4168 34.118 25.4168 30.9575C25.4168 27.797 27.9893 25.2245 31.1498 25.2245C34.3103 25.2245 36.8828 27.797 36.8828 30.9575C36.8828 34.118 34.3103 36.6905 31.1498 36.6905Z" fill="white"/>
<path d="M38.2568 49.132H23.7462C17.7249 49.132 12.8287 44.2358 12.8287 38.2144V23.701C12.8287 17.6797 17.7249 12.7834 23.7462 12.7834H38.2568C44.2781 12.7834 49.1744 17.6797 49.1744 23.701V38.2144C49.1744 44.2358 44.2753 49.132 38.2568 49.132ZM23.7462 16.204C19.6104 16.204 16.2492 19.5681 16.2492 23.701V38.2144C16.2492 42.3502 19.6133 45.7114 23.7462 45.7114H38.2568C42.3926 45.7114 45.7566 42.3474 45.7566 38.2144V23.701C45.7566 19.5652 42.3926 16.204 38.2568 16.204H23.7462Z" fill="white"/>
</g>
</g>
<defs>
<clipPath id="clip0_944_253">
<rect width="62" height="62" rx="31" fill="white"/>
</clipPath>
<clipPath id="clip1_944_253">
<rect width="62" height="62" fill="white"/>
</clipPath>
</defs>
</svg>
