<svg width="62" height="62" viewBox="0 0 62 62" fill="none" xmlns="http://www.w3.org/2000/svg">
<g clip-path="url(#clip0_944_265)">
<rect width="62" height="62" rx="31" fill="white"/>
<g clip-path="url(#clip1_944_265)">
<path d="M31 62C48.1208 62 62 48.1208 62 31C62 13.8792 48.1208 0 31 0C13.8792 0 0 13.8792 0 31C0 48.1208 13.8792 62 31 62Z" fill="#FF6600"/>
<path d="M17.999 25.2275H24.0034V44.5156H17.999V25.2275ZM21.0012 15.6443C22.9207 15.6443 24.4783 17.2019 24.4783 19.1186C24.4783 21.0352 22.9235 22.5985 21.0012 22.5985C19.0789 22.5985 17.5213 21.038 17.5213 19.1186C17.5213 17.1991 19.0761 15.6443 21.0012 15.6443Z" fill="white"/>
<path d="M27.7661 25.2273H33.516V27.8648H33.5952C34.398 26.3467 36.3514 24.7495 39.2716 24.7495C45.341 24.7495 46.4605 28.7411 46.4605 33.937V44.5153H40.4703V35.1384C40.4703 32.8995 40.4279 30.0245 37.355 30.0245C34.2821 30.0245 33.7592 32.4613 33.7592 34.9745V44.5153H27.7661V25.2273Z" fill="white"/>
</g>
</g>
<defs>
<clipPath id="clip0_944_265">
<rect width="62" height="62" rx="31" fill="white"/>
</clipPath>
<clipPath id="clip1_944_265">
<rect width="62" height="62" fill="white"/>
</clipPath>
</defs>
</svg>
