<svg width="249" height="69" viewBox="0 0 249 69" fill="none" xmlns="http://www.w3.org/2000/svg">
<g clip-path="url(#clip0_944_219)">
<path d="M96.3475 32.9136C96.3475 22.1997 104.434 14.2551 115.504 14.2551C120.751 14.2551 125.576 15.9583 129.408 19.7177C130.26 20.5692 130.755 21.7047 129.408 23.0512L126.926 25.5333C126.006 26.3848 125.012 26.7379 123.52 25.464C120.755 22.9093 118.127 22.4143 115.787 22.4143C109.899 22.4143 105.714 26.8833 105.714 32.9136C105.714 38.9438 109.688 43.4128 115.787 43.4128C118.127 43.4128 120.755 42.8451 123.52 40.3631C125.009 39.0165 126.002 39.3696 126.926 40.2939L129.408 42.7759C130.755 44.1225 130.26 45.1887 129.408 46.0402C125.576 49.8723 120.755 51.5755 115.504 51.5755C104.437 51.5755 96.3475 43.5582 96.3475 32.917V32.9136Z" fill="#F2F2F2"/>
<path d="M170.625 17.3049V47.8819C170.625 49.585 169.631 50.6477 167.928 50.6477H165.304C163.601 50.6477 162.608 49.585 162.608 47.8819V46.2514C159.7 49.4431 155.726 51.572 150.621 51.572C140.191 51.572 132.815 43.3436 132.815 32.9136C132.815 22.4835 140.191 14.2551 150.621 14.2551C155.373 14.2551 159.489 16.1002 162.608 18.9388V17.3083C162.608 15.6052 163.601 14.6117 165.304 14.6117H167.928C169.631 14.6117 170.625 15.6052 170.625 17.3083V17.3049ZM161.756 32.9136C161.756 26.1737 157.357 22.4143 152.036 22.4143C146.079 22.4143 142.174 27.0979 142.174 32.9136C142.174 38.7292 146.076 43.3436 152.036 43.3436C157.357 43.3436 161.756 39.5115 161.756 32.9136Z" fill="#F2F2F2"/>
<path d="M204.544 17.7307L203.623 21.2789C203.128 23.0513 201.993 23.2659 200.857 22.9094C199.864 22.5528 198.729 22.3416 197.666 22.3416C193.055 22.3416 190.428 25.8899 190.428 30.9958V47.8819C190.428 49.585 189.434 50.6478 187.731 50.6478H183.616C181.913 50.6478 180.992 49.585 180.992 47.8819V23.6882C180.992 22.9094 180.635 22.5528 180.071 22.5528C179.431 22.5528 178.652 22.9786 178.015 23.0478C177.236 23.3317 176.454 22.9786 175.959 21.4866L175.322 18.5061C174.823 17.0176 175.107 16.0933 176.315 15.4564C177.804 14.6048 179.791 14.2517 181.283 14.2517C184.689 14.2517 187.738 15.8129 188.732 19.5031C190.861 16.2387 194.125 14.2517 198.594 14.2517C200.297 14.2517 201.643 14.4663 203.062 14.8921C204.125 15.2487 205.118 15.8129 204.551 17.7307H204.544Z" fill="#F2F2F2"/>
<path d="M247.806 50.222C245.961 51.2847 243.905 51.5686 242.416 51.5686C238.868 51.5686 236.172 49.5816 235.32 46.0334C232.412 49.2977 228.297 51.5686 223.118 51.5686C212.689 51.5686 205.312 43.3402 205.312 32.9102C205.312 22.4801 212.689 14.2517 223.118 14.2517C227.161 14.2517 230.779 15.5983 233.69 17.7273V3.54131C233.69 1.91086 234.61 1.20122 236.314 0.775433L240.287 0.0657897C242.202 -0.287301 243.126 0.844667 243.126 2.68974V42.2048C243.126 42.9836 243.268 43.5514 244.047 43.5514C244.614 43.5514 245.109 43.2675 245.75 43.1948C246.812 42.911 247.522 43.4787 247.948 44.756L248.726 47.238C249.367 48.9412 248.799 49.6508 247.806 50.2186V50.222ZM234.257 32.9102C234.257 26.1703 229.858 22.4109 224.537 22.4109C218.58 22.4109 214.676 27.0946 214.676 32.9102C214.676 38.7258 218.577 43.3402 224.537 43.3402C229.858 43.3402 234.257 39.5081 234.257 32.9102Z" fill="#F2F2F2"/>
<path d="M55.2526 68.1466H12.3022C5.51764 68.1466 0 62.6287 0 55.8438V34.191C0 27.4061 5.51764 21.8882 12.3022 21.8882H16.1514V18.97C16.1514 12.1851 21.669 6.66724 28.4536 6.66724H69.739C76.5235 6.66724 82.0412 12.1851 82.0412 18.97V40.6228C82.0412 47.4077 76.5235 52.9256 69.739 52.9256H67.5513V55.8438C67.5513 62.6287 62.0337 68.1466 55.2491 68.1466H55.2526ZM12.3022 28.1989C8.99992 28.1989 6.31379 30.8851 6.31379 34.1876V55.8403C6.31379 59.1428 8.99992 61.829 12.3022 61.829H55.2526C58.5548 61.829 61.241 59.1428 61.241 55.8403V52.9222H28.4536C21.669 52.9222 16.1514 47.4042 16.1514 40.6194V34.1876C16.1514 32.0206 16.7156 29.9816 17.7021 28.2127L12.3022 28.1989ZM67.5548 46.6081H69.7424C73.0447 46.6081 75.7308 43.9218 75.7308 40.6194V18.9666C75.7308 15.6641 73.0447 12.9779 69.7424 12.9779H28.457C25.1548 12.9779 22.4686 15.6641 22.4686 18.9666V23.446C24.2409 22.4525 26.2832 21.8882 28.457 21.8882H55.2526C62.0371 21.8882 67.5548 27.4061 67.5548 34.191V46.6115V46.6081ZM28.457 28.1989C25.1548 28.1989 22.4686 30.8851 22.4686 34.1876V40.6194C22.4686 43.9218 25.1548 46.6081 28.457 46.6081H61.2444V34.1876C61.2444 30.8851 58.5583 28.1989 55.256 28.1989H28.4605H28.457Z" fill="#F2F2F2"/>
</g>
<defs>
<clipPath id="clip0_944_219">
<rect width="249" height="68.1466" fill="white"/>
</clipPath>
</defs>
</svg>
