<svg width="62" height="62" viewBox="0 0 62 62" fill="none" xmlns="http://www.w3.org/2000/svg">
<g clip-path="url(#clip0_944_261)">
<rect width="62" height="62" rx="31" fill="white"/>
<g clip-path="url(#clip1_944_261)">
<path d="M30.9999 65.9743C50.3157 65.9743 65.9743 50.3158 65.9743 31C65.9743 11.6842 50.3157 -3.97437 30.9999 -3.97437C11.6841 -3.97437 -3.97443 11.6842 -3.97443 31C-3.97443 50.3158 11.6841 65.9743 30.9999 65.9743Z" fill="#FF6600"/>
<path d="M49.7245 25.9127C49.7245 21.2754 45.9642 17.5151 41.3269 17.5151H19.8531C15.2157 17.5151 11.4555 21.2754 11.4555 25.9127V35.9049C11.4555 40.5422 15.2157 44.3024 19.8531 44.3024H41.3269C45.9642 44.3024 49.7245 40.5422 49.7245 35.9049V25.9127ZM37.0947 31.6599L27.466 36.4248C27.0897 36.6289 25.8044 36.3546 25.8044 35.9272V26.1487C25.8044 25.7149 27.0992 25.4407 27.4756 25.6575L36.6928 30.6744C37.0787 30.8944 37.4837 31.4526 37.0947 31.6663V31.6599Z" fill="white"/>
</g>
</g>
<defs>
<clipPath id="clip0_944_261">
<rect width="62" height="62" rx="31" fill="white"/>
</clipPath>
<clipPath id="clip1_944_261">
<rect width="69.9487" height="69.9487" fill="white" transform="translate(-3.97443 -3.97437)"/>
</clipPath>
</defs>
</svg>
